<svg width="115" height="80" viewBox="0 0 115 80" fill="none" xmlns="http://www.w3.org/2000/svg">
<path fill-rule="evenodd" clip-rule="evenodd" d="M49 13.5702L57 10L65 13.5702V18.9256C65 23.8793 61.5867 28.5117 57 29.6364C52.4133 28.5117 49 23.8793 49 18.9256V13.5702ZM51.6667 20.7107L55.2222 24.281L62.3333 17.1405L61.08 15.8731L55.2222 21.755L52.92 19.4522L51.6667 20.7107ZM31.4122 50.2812C28.9434 50.2812 27.2481 48.9688 27.0528 46.8203H29.0216C29.2169 47.8984 30.2403 48.6016 31.5684 48.6016C32.9356 48.6016 33.8809 47.9297 33.8809 46.9375C33.8809 46.1719 33.3653 45.7031 32.0606 45.2734L30.92 44.9062C29.3028 44.375 28.3731 43.2891 28.3731 41.8906C28.3731 39.9062 30.1934 38.4453 32.6466 38.4453C34.9981 38.4453 36.7012 39.8516 36.8106 41.8594H34.8809C34.6856 40.8047 33.795 40.125 32.5528 40.125C31.3419 40.125 30.4434 40.7734 30.4434 41.6719C30.4434 42.3594 30.9434 42.8594 32.0606 43.2344L33.17 43.6016C35.0606 44.2266 35.9356 45.1797 35.9356 46.6562C35.9356 48.8203 34.0997 50.2812 31.4122 50.2812ZM39.1784 48.2578H44.4519L44.0925 50H36.7878L39.1862 38.7266H46.4909L46.1237 40.4688H40.8659L40.2097 43.4609H45.1862L44.8425 45.1016H39.8737L39.1784 48.2578ZM55.1244 42.5469H57.1009L57.1029 42.5274L57.1029 42.5272C57.11 42.4568 57.1166 42.3918 57.1166 42.3203C57.1166 40.1094 55.2025 38.4453 52.6712 38.4453C49.14 38.4453 46.5697 41.4453 46.5697 45.6016C46.5697 48.4297 48.3822 50.2812 51.1322 50.2812C53.7572 50.2812 55.7337 48.8594 56.2572 46.6172H54.2337C53.8509 47.7344 52.6869 48.4766 51.3197 48.4766C49.6712 48.4766 48.64 47.3125 48.64 45.4453C48.64 42.5 50.3353 40.25 52.5384 40.25C54.0306 40.25 55.0462 41.1328 55.1244 42.4766V42.5469ZM67.1797 46.4922C66.6719 48.8672 64.9375 50.2812 62.1875 50.2812C59.5 50.2812 57.9687 48.7344 57.9531 46.6719C57.9453 46.3516 57.9844 46.0156 58.0547 45.6797L59.5156 38.7266H61.5547L60.1016 45.6016C60.0312 45.9219 60.0078 46.2188 60.0078 46.4922C60.0469 47.7031 60.8672 48.4609 62.375 48.4609C63.8203 48.4609 64.9062 47.5859 65.2344 46.0547L66.7891 38.7266H68.8281L67.1797 46.4922ZM68.5553 50H70.5944L71.4928 45.7734H73.8209L75.2116 50H77.3834L75.8131 45.5234C77.5709 45.0078 78.6803 43.5391 78.6803 41.8438C78.6803 39.9922 77.2897 38.7266 75.2116 38.7266H70.9537L68.5553 50ZM72.6412 40.3984H74.8522C75.9537 40.3984 76.6178 41.0078 76.6178 42.0234C76.6178 43.2812 75.61 44.1719 74.1256 44.1719H71.8287L72.6412 40.3984ZM81.1653 48.2578H86.4387L86.0794 50H78.7747L81.1731 38.7266H88.4778L88.1106 40.4688H82.8528L82.1965 43.4609H87.1731L86.8294 45.1016H81.8606L81.1653 48.2578ZM23.3494 61.5469H25.3259L25.3279 61.5274C25.335 61.4569 25.3416 61.3919 25.3416 61.3203C25.3416 59.1094 23.4275 57.4453 20.8962 57.4453C17.365 57.4453 14.7947 60.4453 14.7947 64.6016C14.7947 67.4297 16.6072 69.2812 19.3572 69.2812C21.9822 69.2812 23.9587 67.8594 24.4822 65.6172H22.4587C22.0759 66.7344 20.9119 67.4766 19.5447 67.4766C17.8962 67.4766 16.865 66.3125 16.865 64.4453C16.865 61.5 18.5603 59.25 20.7634 59.25C22.2556 59.25 23.2712 60.1328 23.3494 61.4766V61.5469ZM37.2406 57.7266L34.8422 69H32.8031L33.8422 64.1328H28.3812L27.3422 69H25.3109L27.7094 57.7266H29.7484L28.7484 62.3906H34.2094L35.2094 57.7266H37.2406ZM44.6475 67.2578H39.3741L40.0694 64.1016H45.0381L45.3819 62.4609H40.4053L41.0616 59.4688H46.3194L46.6866 57.7266H39.3819L36.9834 69H44.2881L44.6475 67.2578ZM57.2966 61.5469H55.32V61.4766C55.2419 60.1328 54.2262 59.25 52.7341 59.25C50.5309 59.25 48.8356 61.5 48.8356 64.4453C48.8356 66.3125 49.8669 67.4766 51.5153 67.4766C52.8825 67.4766 54.0466 66.7344 54.4294 65.6172H56.4528C55.9294 67.8594 53.9528 69.2812 51.3278 69.2812C48.5778 69.2812 46.7653 67.4297 46.7653 64.6016C46.7653 60.4453 49.3356 57.4453 52.8669 57.4453C55.3981 57.4453 57.3122 59.1094 57.3122 61.3203C57.3122 61.3918 57.3056 61.4568 57.2985 61.5272L57.2985 61.5274L57.2966 61.5469ZM59.305 69L60.0628 65.4922L61.6722 64.0078L64.2112 69H66.5003L63.3206 62.7812L68.6409 57.7266H66.2034L60.7269 62.875H60.5941L61.6956 57.7266H59.6878L57.2894 69H59.305ZM76.4853 62.3516C76.4853 60.5 75.3759 59.2656 73.7275 59.2656C71.4853 59.2656 69.7587 61.4922 69.7587 64.3828C69.7587 66.2344 70.8759 67.4688 72.54 67.4688C74.79 67.4688 76.4853 65.2812 76.4853 62.3516ZM78.5712 62.1875C78.5712 66.3438 75.9462 69.2812 72.4462 69.2812C69.6025 69.2812 67.6806 67.2578 67.6806 64.5391C67.6806 60.4062 70.3134 57.4453 73.8212 57.4453C76.6884 57.4453 78.5712 59.4688 78.5712 62.1875ZM84.0406 69.2812C86.7906 69.2812 88.525 67.8672 89.0328 65.4922L90.6812 57.7266H88.6422L87.0875 65.0547C86.7594 66.5859 85.6734 67.4609 84.2281 67.4609C82.7203 67.4609 81.9 66.7031 81.8609 65.4922C81.8609 65.2188 81.8844 64.9219 81.9547 64.6016L83.4078 57.7266H81.3687L79.9078 64.6797C79.8375 65.0156 79.7984 65.3516 79.8062 65.6719C79.8219 67.7344 81.3531 69.2812 84.0406 69.2812ZM97.2678 59.4688L95.2287 69H93.1975L95.2287 59.4688H91.7678L92.1272 57.7266H101.088L100.729 59.4688H97.2678Z" fill="#F7728F"/>
</svg>
