<svg width="115" height="80" viewBox="0 0 115 80" fill="none" xmlns="http://www.w3.org/2000/svg">
<path fill-rule="evenodd" clip-rule="evenodd" d="M82.5999 66C76.0582 72.1982 67.2231 76 57.5 76C47.7769 76 38.9418 72.1982 32.4001 66H82.5999ZM91.4221 53H23.5779C21.9146 48.8242 21 44.2689 21 39.5C21 19.3416 37.3416 3 57.5 3C77.6584 3 94 19.3416 94 39.5C94 44.2689 93.0854 48.8242 91.4221 53ZM39.5833 26.0398L41.7978 27.2708L41.2101 24.9506L43.1666 23.3895L40.5902 23.1882L39.5833 21L38.5764 23.1882L36 23.3895L37.9565 24.9506L37.3688 27.2708L39.5833 26.0398ZM50.7561 27.2708L48.5416 26.0398L46.3271 27.2708L46.9148 24.9506L44.9583 23.3895L47.5347 23.1882L48.5416 21L49.5485 23.1882L52.125 23.3895L50.1685 24.9506L50.7561 27.2708ZM59.7145 27.2708L57.5 26.0398L55.2855 27.2708L55.8731 24.9506L53.9166 23.3895L56.493 23.1882L57.5 21L58.5069 23.1882L61.0833 23.3895L59.1268 24.9506L59.7145 27.2708ZM68.6728 27.2708L66.4583 26.0398L64.2438 27.2708L64.8315 24.9506L62.875 23.3895L65.4514 23.1882L66.4583 21L67.4652 23.1882L70.0416 23.3895L68.0851 24.9506L68.6728 27.2708ZM75.4166 26.0398L77.6311 27.2708L77.0435 24.9506L79 23.3895L76.4235 23.1882L75.4166 21L74.4097 23.1882L71.8333 23.3895L73.7898 24.9506L73.2021 27.2708L75.4166 26.0398ZM40.6415 46H37.9872V35.9014H37.829L34.7177 38.0459V35.5762L37.996 33.3174H40.6415V46ZM48.3238 46.3252C51.4615 46.3252 53.36 43.8379 53.36 39.6455C53.36 35.4355 51.4352 32.9922 48.3238 32.9922C45.2037 32.9922 43.2877 35.4355 43.2877 39.6367C43.2877 43.8467 45.1861 46.3252 48.3238 46.3252ZM48.3238 44.1631C46.8736 44.1631 45.9771 42.6426 45.9771 39.6367C45.9771 36.6572 46.8824 35.1631 48.3238 35.1631C49.774 35.1631 50.6705 36.6484 50.6705 39.6367C50.6705 42.6426 49.7828 44.1631 48.3238 44.1631ZM64.9622 39.6455C64.9622 43.8379 63.0638 46.3252 59.9261 46.3252C56.7884 46.3252 54.89 43.8467 54.89 39.6367C54.89 35.4355 56.806 32.9922 59.9261 32.9922C63.0374 32.9922 64.9622 35.4355 64.9622 39.6455ZM57.5794 39.6367C57.5794 42.6426 58.4759 44.1631 59.9261 44.1631C61.3851 44.1631 62.2728 42.6426 62.2728 39.6367C62.2728 36.6484 61.3763 35.1631 59.9261 35.1631C58.4847 35.1631 57.5794 36.6572 57.5794 39.6367ZM68.8653 39.2588C70.7637 39.2588 71.8799 38.1162 71.8799 36.1562C71.8799 34.2402 70.7373 33.0713 68.8653 33.0713C67.002 33.0713 65.8506 34.249 65.8506 36.1562C65.8506 38.1074 66.9668 39.2588 68.8653 39.2588ZM68.8653 37.6855C68.2237 37.6855 67.8545 37.1318 67.8545 36.165C67.8545 35.2246 68.2325 34.6533 68.8653 34.6533C69.4893 34.6533 69.8672 35.2246 69.8672 36.165C69.8672 37.123 69.5069 37.6855 68.8653 37.6855ZM70.166 46L78.5948 33.3174H76.5645L68.1358 46H70.166ZM77.8653 46.1494C79.7637 46.1494 80.8799 45.0068 80.8799 43.0469C80.8799 41.1309 79.7373 39.9707 77.8653 39.9707C76.002 39.9707 74.8506 41.1396 74.8506 43.0469C74.8506 45.0068 75.9756 46.1494 77.8653 46.1494ZM77.8653 44.5762C77.2237 44.5762 76.8633 44.0225 76.8633 43.0557C76.8633 42.1152 77.2325 41.5439 77.8653 41.5439C78.4981 41.5439 78.876 42.1152 78.876 43.0557C78.876 44.0137 78.5069 44.5762 77.8653 44.5762ZM11.6296 62.9746C11.2537 63.1064 10.8337 63.1748 10.3845 63.1748C8.32397 63.1748 7.04468 61.7686 7.04468 59.4785C7.04468 57.1934 8.33862 55.7773 10.3845 55.7773C12.4207 55.7773 13.7097 57.1982 13.7097 59.4785C13.7097 60.8213 13.2751 61.876 12.5037 62.4766L13.4265 63.7266H12.196L11.6296 62.9746ZM8.30933 59.4785C8.30933 61.0898 9.11499 62.0908 10.3845 62.0908C10.575 62.0908 10.7605 62.0713 10.9363 62.0225L10.0037 60.7725H11.239L11.7712 61.4609C12.2009 61.0557 12.4451 60.3525 12.4451 59.4785C12.4451 57.8721 11.6394 56.8613 10.3845 56.8613C9.11987 56.8613 8.30933 57.8721 8.30933 59.4785ZM14.7501 55.9531H16.0099V60.4551C16.0099 61.4072 16.6007 62.0469 17.6457 62.0469C18.6906 62.0469 19.2814 61.4072 19.2814 60.4551V55.9531H20.5412V60.5723C20.5412 62.1104 19.4279 63.1748 17.6457 63.1748C15.8634 63.1748 14.7501 62.1104 14.7501 60.5723V55.9531ZM26.2544 62.999H27.607L25.1021 55.9531H23.6861L21.1861 62.999H22.4605L23.066 61.1973H25.6587L26.2544 62.999ZM24.3257 57.2959H24.4087L25.3658 60.2012H23.3589L24.3257 57.2959ZM29.6777 61.8955H32.9101V62.999H28.4179V55.9531H29.6777V61.8955ZM35.1273 62.999V55.9531H33.8675V62.999H35.1273ZM39.4783 57.042V62.999H38.2185V57.042H36.0505V55.9531H41.6511V57.042H39.4783ZM45.7775 62.999V60.2451L48.2482 55.9531H46.8664L45.1916 58.9658H45.1085L43.4289 55.9531H42.047L44.5177 60.2451V62.999H45.7775ZM57.4238 59.293V60.1768C57.4238 62.0078 56.2226 63.1748 54.3427 63.1748C52.3017 63.1748 51.0322 61.7588 51.0322 59.4736C51.0322 57.2178 52.3164 55.7773 54.3232 55.7773C55.9492 55.7773 57.1406 56.7051 57.3652 58.1455H56.1103C55.8564 57.3447 55.2265 56.9004 54.3232 56.9004C53.0927 56.9004 52.3212 57.8818 52.3212 59.4639C52.3212 61.0654 53.1074 62.0518 54.3623 62.0518C55.4365 62.0518 56.1689 61.3975 56.1884 60.4258L56.1933 60.2793H54.499V59.293H57.4238ZM59.7435 55.9531H58.4837V60.5723C58.4837 62.1104 59.597 63.1748 61.3792 63.1748C63.1615 63.1748 64.2748 62.1104 64.2748 60.5723V55.9531H63.015V60.4551C63.015 61.4072 62.4242 62.0469 61.3792 62.0469C60.3343 62.0469 59.7435 61.4072 59.7435 60.4551V55.9531ZM71.3406 62.999H69.988L69.3923 61.1973H66.7996L66.1941 62.999H64.9197L67.4197 55.9531H68.8357L71.3406 62.999ZM68.1423 57.2959H68.0593L67.0925 60.2012H69.0994L68.1423 57.2959ZM73.4113 56.998H74.8371C75.6378 56.998 76.1261 57.4473 76.1261 58.1797C76.1261 58.9268 75.6671 59.3564 74.8664 59.3564H73.4113V56.998ZM73.4113 60.3574H74.8078L76.1896 62.999H77.63L76.0919 60.1621C76.9318 59.8594 77.4201 59.083 77.4201 58.1553C77.4201 56.8027 76.4923 55.9531 75.0128 55.9531H72.1515V62.999H73.4113V60.3574ZM84.4468 62.999H83.0943L82.4986 61.1973H79.9058L79.3003 62.999H78.0259L80.5259 55.9531H81.9419L84.4468 62.999ZM81.2486 57.2959H81.1656L80.1988 60.2012H82.2056L81.2486 57.2959ZM86.4736 62.999V58.2041H86.5566L90.0136 62.999H91.1025V55.9531H89.8916V60.7432H89.8085L86.3515 55.9531H85.2578V62.999H86.4736ZM95.4584 57.042V62.999H94.1986V57.042H92.0306V55.9531H97.6312V57.042H95.4584ZM103.11 61.9102H99.8093V59.9375H102.929V58.9121H99.8093V57.042H103.11V55.9531H98.5496V62.999H103.11V61.9102ZM105.532 61.9102H108.833V62.999H104.273V55.9531H108.833V57.042H105.532V58.9121H108.652V59.9375H105.532V61.9102Z" fill="#F7728F"/>
</svg>
