<svg width="115" height="80" viewBox="0 0 115 80" fill="none" xmlns="http://www.w3.org/2000/svg">
<path fill-rule="evenodd" clip-rule="evenodd" d="M61.9999 16H64.9999L67.9999 20V25H65.9999C65.9999 26.66 64.6599 28 62.9999 28C61.3399 28 59.9999 26.66 59.9999 25H53.9999C53.9999 26.66 52.6599 28 50.9999 28C49.3399 28 47.9999 26.66 47.9999 25H45.9999V14C45.9999 12.9 46.8999 12 47.9999 12H61.9999V16ZM49.4999 25C49.4999 25.83 50.1699 26.5 50.9999 26.5C51.8299 26.5 52.4999 25.83 52.4999 25C52.4999 24.17 51.8299 23.5 50.9999 23.5C50.1699 23.5 49.4999 24.17 49.4999 25ZM66.4599 20L64.4999 17.5H61.9999V20H66.4599ZM61.4999 25C61.4999 25.83 62.1699 26.5 62.9999 26.5C63.8299 26.5 64.4999 25.83 64.4999 25C64.4999 24.17 63.8299 23.5 62.9999 23.5C62.1699 23.5 61.4999 24.17 61.4999 25ZM90.9628 37.2656C92.6112 37.2656 93.7206 38.5 93.7206 40.3516C93.7206 43.2812 92.0253 45.4688 89.7753 45.4688C88.1112 45.4688 86.994 44.2344 86.994 42.3828C86.994 39.4922 88.7206 37.2656 90.9628 37.2656ZM89.6815 47.2812C93.1815 47.2812 95.8065 44.3438 95.8065 40.1875C95.8065 37.4688 93.9237 35.4453 91.0565 35.4453C87.5487 35.4453 84.9159 38.4062 84.9159 42.5391C84.9159 45.2578 86.8378 47.2812 89.6815 47.2812ZM9.67651 35.7266L7.28589 47H9.31714L10.1062 43.3047H12.5359C15.2703 43.3047 17.2703 41.6484 17.2703 38.9375C17.2703 36.9844 15.8093 35.7266 13.739 35.7266H9.67651ZM11.364 37.4141H13.2078C14.4421 37.4141 15.2078 38.0156 15.2078 39.1172C15.2078 40.6797 14.1218 41.6328 12.4812 41.6328H10.45L11.364 37.4141ZM22.9115 37.8906H23.0443L23.6068 42.5234H20.3646L22.9115 37.8906ZM24.0756 47H26.1146L24.5443 35.7266H22.3334L15.8568 47H17.974L19.5521 44.1172H23.7318L24.0756 47ZM32.1309 42.7266L31.2325 47H29.2012L30.1387 42.5938L27.6465 35.7266H29.7481L31.4825 40.5859H31.6231L35.334 35.7266H37.5684L32.1309 42.7266ZM38.3581 47L40.0534 39.0703H40.1706L41.6471 46.6094H43.0768L47.819 39.0703H47.9362L46.2409 47H48.1237L50.5221 35.7266H48.0612L42.8971 43.9922H42.7643L41.1628 35.7266H38.8659L36.4674 47H38.3581ZM52.6556 45.2578H57.929L57.5696 47H50.2649L52.6634 35.7266H59.9681L59.6009 37.4688H54.3431L53.6868 40.4609H58.6634L58.3196 42.1016H53.3509L52.6556 45.2578ZM61.3984 47L63.0859 39.1484H63.2265L67.1328 47H68.789L71.1875 35.7266H69.2109L67.5078 43.625H67.375L63.4765 35.7266H61.8203L59.4218 47H61.3984ZM77.7818 37.4688L75.7428 47H73.7115L75.7428 37.4688H72.2818L72.6412 35.7266H81.6021L81.2428 37.4688H77.7818ZM99.8384 39.1484L98.1509 47H96.1743L98.5728 35.7266H100.229L104.127 43.625H104.26L105.963 35.7266H107.94L105.542 47H103.885L99.979 39.1484H99.8384ZM22.8493 54.7266L20.4665 66H25.3962C28.7712 66 31.2634 63.2188 31.2634 59.4375C31.2634 56.4922 29.5134 54.7266 26.5368 54.7266H22.8493ZM24.5368 56.4531H26.1618C28.0681 56.4531 29.1931 57.6562 29.1931 59.6328C29.1931 62.3594 27.5368 64.2656 25.2868 64.2656H22.8571L24.5368 56.4531ZM34.0609 64.2578H39.3343L38.975 66H31.6703L34.0687 54.7266H41.3734L41.0062 56.4688H35.7484L35.0921 59.4609H40.0687L39.725 61.1016H34.7562L34.0609 64.2578ZM48.3818 64.2344H43.2256L45.2568 54.7266H43.2256L40.8271 66H48.0224L48.3818 64.2344ZM53.9996 54.7266L51.6012 66H49.5621L51.9606 54.7266H53.9996ZM59.1721 66L65.4612 54.7266H63.2034L58.5471 63.6172H58.4143L57.3831 54.7266H55.2971L56.8518 66H59.1721ZM66.7509 64.2578H72.0243L71.6649 66H64.3603L66.7587 54.7266H74.0634L73.6962 56.4688H68.4384L67.7821 59.4609H72.7587L72.4149 61.1016H67.4462L66.7509 64.2578ZM73.5171 66H75.5562L76.4546 61.7734H78.7828L80.1734 66H82.3453L80.7749 61.5234C82.5328 61.0078 83.6421 59.5391 83.6421 57.8438C83.6421 55.9922 82.2515 54.7266 80.1734 54.7266H75.9156L73.5171 66ZM77.6031 56.3984H79.814C80.9156 56.3984 81.5796 57.0078 81.5796 58.0234C81.5796 59.2812 80.5718 60.1719 79.0874 60.1719H76.7906L77.6031 56.3984ZM89.5256 61.7266L88.6271 66H86.5959L87.5334 61.5938L85.0412 54.7266H87.1428L88.8771 59.5859H89.0178L92.7287 54.7266H94.9631L89.5256 61.7266Z" fill="#F7728F"/>
</svg>
