<svg width="115" height="80" viewBox="0 0 115 80" fill="none" xmlns="http://www.w3.org/2000/svg">
<path fill-rule="evenodd" clip-rule="evenodd" d="M91.4221 53C93.0854 48.8242 94 44.2689 94 39.5C94 19.3416 77.6584 3 57.5 3C37.3416 3 21 19.3416 21 39.5C21 44.2689 21.9146 48.8242 23.5779 53H91.4221ZM32.4001 66C38.9418 72.1982 47.7769 76 57.5 76C67.2231 76 76.0582 72.1982 82.5999 66H32.4001ZM74.5 40.8405L78.517 43L77.451 38.93L81 36.1916L76.3265 35.8384L74.5 32L72.6735 35.8384L68 36.1916L71.549 38.93L70.483 43L74.5 40.8405ZM67.888 46L58 40.5032L48.112 46L50.736 35.64L42 28.6695L53.504 27.7705L58 18L62.496 27.7705L74 28.6695L65.264 35.64L67.888 46ZM84.5833 43.0398L86.7978 44.2708L86.2102 41.9506L88.1667 40.3895L85.5902 40.1882L84.5833 38L83.5764 40.1882L81 40.3895L82.9565 41.9506L82.3688 44.2708L84.5833 43.0398ZM45.517 43L41.5 40.8405L37.483 43L38.549 38.93L35 36.1916L39.6735 35.8384L41.5 32L43.3265 35.8384L48 36.1916L44.451 38.93L45.517 43ZM31.5833 43.0398L33.7978 44.2708L33.2102 41.9506L35.1667 40.3895L32.5903 40.1882L31.5833 38L30.5764 40.1882L28 40.3895L29.9565 41.9506L29.3688 44.2708L31.5833 43.0398ZM23.6578 62.1406C22.3648 62.1406 21.5094 61.4922 21.4586 60.4688H22.443C22.5055 60.9727 23.0055 61.2969 23.7203 61.2969C24.3844 61.2969 24.8648 60.957 24.8648 60.4844C24.8648 60.0781 24.5563 59.8398 23.8336 59.6719L23.1031 59.5039C22.0797 59.2734 21.5992 58.7656 21.5992 57.9258C21.5992 56.9023 22.4352 56.2227 23.6969 56.2227C24.8805 56.2227 25.7359 56.9023 25.7828 57.8711H24.818C24.7477 57.375 24.3102 57.0625 23.693 57.0625C23.0445 57.0625 22.6148 57.375 22.6148 57.8555C22.6148 58.2344 22.9 58.457 23.5992 58.6172L24.2477 58.7656C25.3922 59.0234 25.8727 59.5 25.8727 60.3594C25.8727 61.457 25.025 62.1406 23.6578 62.1406ZM26.6816 56.3633H27.6894V59.9648C27.6894 60.7266 28.162 61.2383 28.998 61.2383C29.8339 61.2383 30.3066 60.7266 30.3066 59.9648V56.3633H31.3144V60.0586C31.3144 61.2891 30.4238 62.1406 28.998 62.1406C27.5722 62.1406 26.6816 61.2891 26.6816 60.0586V56.3633ZM32.3811 62V56.3633H34.6545C35.7795 56.3633 36.5491 57.1328 36.5491 58.2695C36.5491 59.3867 35.7522 60.1523 34.6116 60.1523H33.3889V62H32.3811ZM34.3889 57.207H33.3889V59.3164H34.385C35.1038 59.3164 35.5256 58.9414 35.5256 58.2695C35.5256 57.5781 35.1155 57.207 34.3889 57.207ZM38.3502 61.1289H40.9908V62H37.3423V56.3633H40.9908V57.2344H38.3502V58.7305H40.8463V59.5508H38.3502V61.1289ZM44.0692 57.1992H42.9286V59.0859H44.0927C44.7333 59.0859 45.1005 58.7422 45.1005 58.1445C45.1005 57.5586 44.7098 57.1992 44.0692 57.1992ZM44.0458 59.8867H42.9286V62H41.9208V56.3633H44.2098C45.3934 56.3633 46.1356 57.043 46.1356 58.125C46.1356 58.8672 45.745 59.4883 45.0731 59.7305L46.3036 62H45.1513L44.0458 59.8867ZM48.0461 56.3633V62H47.0383V56.3633H48.0461ZM48.8784 59.1797C48.8784 57.3594 49.9097 56.2227 51.5464 56.2227C53.187 56.2227 54.2105 57.3594 54.2105 59.1797C54.2105 60.9961 53.1909 62.1406 51.5464 62.1406C49.8941 62.1406 48.8784 61 48.8784 59.1797ZM53.1831 59.1797C53.1831 57.918 52.5464 57.1172 51.5464 57.1172C50.5464 57.1172 49.9097 57.918 49.9097 59.1797C49.9097 60.4375 50.5308 61.2461 51.5464 61.2461C52.5503 61.2461 53.1831 60.4375 53.1831 59.1797ZM57.1952 57.1992H56.0545V59.0859H57.2186C57.8592 59.0859 58.2264 58.7422 58.2264 58.1445C58.2264 57.5586 57.8358 57.1992 57.1952 57.1992ZM57.1717 59.8867H56.0545V62H55.0467V56.3633H57.3358C58.5194 56.3633 59.2616 57.043 59.2616 58.125C59.2616 58.8672 58.8709 59.4883 58.1991 59.7305L59.4295 62H58.2772L57.1717 59.8867ZM65.4067 61.9805C65.1059 62.0859 64.77 62.1406 64.4106 62.1406C62.7622 62.1406 61.7388 61.0156 61.7388 59.1836C61.7388 57.3555 62.7739 56.2227 64.4106 56.2227C66.0395 56.2227 67.0708 57.3594 67.0708 59.1836C67.0708 60.2578 66.7231 61.1016 66.1059 61.582L66.8442 62.582H65.8598L65.4067 61.9805ZM62.7505 59.1836C62.7505 60.4727 63.395 61.2734 64.4106 61.2734C64.563 61.2734 64.7114 61.2578 64.852 61.2188L64.1059 60.2188H65.0942L65.52 60.7695C65.8638 60.4453 66.0591 59.8828 66.0591 59.1836C66.0591 57.8984 65.4145 57.0898 64.4106 57.0898C63.3989 57.0898 62.7505 57.8984 62.7505 59.1836ZM67.9031 56.3633H68.9109V59.9648C68.9109 60.7266 69.3836 61.2383 70.2195 61.2383C71.0555 61.2383 71.5281 60.7266 71.5281 59.9648V56.3633H72.5359V60.0586C72.5359 61.2891 71.6453 62.1406 70.2195 62.1406C68.7937 62.1406 67.9031 61.2891 67.9031 60.0586V56.3633ZM78.1886 62H77.1066L76.63 60.5586H74.5558L74.0714 62H73.0519L75.0519 56.3633H76.1847L78.1886 62ZM75.63 57.4375H75.5636L74.7902 59.7617H76.3956L75.63 57.4375ZM79.8452 61.1172H82.4311V62H78.8373V56.3633H79.8452V61.1172ZM84.2048 56.3633V62H83.197V56.3633H84.2048ZM87.6856 57.2344V62H86.6778V57.2344H84.9434V56.3633H89.4239V57.2344H87.6856ZM92.725 59.7969V62H91.7172V59.7969L89.7406 56.3633H90.8461L92.1898 58.7734H92.2562L93.5961 56.3633H94.7016L92.725 59.7969Z" fill="#F7728F"/>
</svg>
