<svg width="115" height="80" viewBox="0 0 115 80" fill="none" xmlns="http://www.w3.org/2000/svg">
<path fill-rule="evenodd" clip-rule="evenodd" d="M37.3333 15H4.66667C2.1 15 0.0233294 17.1273 0.0233294 19.7273L0 50.2891C0 51.92 0.816669 53.3618 2.05334 54.2127L21 67L39.9233 54.2127C41.16 53.3618 41.9767 51.92 41.9767 50.2891L41.9815 43.9999L42 44H112C113.105 44 114 43.1046 114 42V25C114 23.8954 113.105 23 112 23H42L41.9975 23L42 19.7273C42 17.1273 39.9 15 37.3333 15ZM16.3333 50.4545L4.66667 38.6364L7.95667 35.3036L16.3333 43.7655L34.0433 25.8255L37.3333 29.1818L16.3333 50.4545ZM58.6129 37.9004C56.5973 37.9004 55.2906 36.9102 55.2262 35.334H56.9371C57.0192 36.0195 57.7106 36.459 58.7067 36.459C59.6266 36.459 60.277 36.0137 60.277 35.375C60.277 34.8359 59.8551 34.5254 58.818 34.3027L57.7164 34.0684C56.1754 33.7461 55.4196 32.9434 55.4196 31.6543C55.4196 30.0605 56.7028 29.0117 58.6539 29.0117C60.5172 29.0117 61.8356 30.0547 61.8883 31.5605H60.2242C60.1422 30.8926 59.5211 30.4473 58.6656 30.4473C57.7809 30.4473 57.1949 30.8574 57.1949 31.502C57.1949 32.0234 57.5992 32.3223 58.5895 32.5332L59.609 32.75C61.3082 33.1074 62.0406 33.8398 62.0406 35.1523C62.0406 36.8574 60.734 37.9004 58.6129 37.9004ZM65.006 36.1719H68.838V37.6836H63.2364V29.2285H68.838V30.7402H65.006V32.7148H68.6212V34.1152H65.006V36.1719ZM73.8131 37.9004C75.8521 37.9004 77.3404 36.6406 77.4869 34.8125H75.7642C75.5943 35.7441 74.8326 36.3418 73.8189 36.3418C72.483 36.3418 71.6568 35.2344 71.6568 33.4531C71.6568 31.6719 72.483 30.5703 73.8131 30.5703C74.8209 30.5703 75.5885 31.209 75.7584 32.1816H77.481C77.3521 30.3418 75.817 29.0117 73.8131 29.0117C71.358 29.0117 69.8463 30.7051 69.8463 33.4531C69.8463 36.207 71.3639 37.9004 73.8131 37.9004ZM78.6299 29.2285H80.3995V34.584C80.3995 35.6504 81.044 36.3301 82.1749 36.3301C83.3057 36.3301 83.9444 35.6504 83.9444 34.584V29.2285H85.7139V34.7656C85.7139 36.6406 84.337 37.9004 82.1749 37.9004C80.0128 37.9004 78.6299 36.6406 78.6299 34.7656V29.2285ZM89.0542 30.6582H90.5894C91.4683 30.6582 92.0191 31.1621 92.0191 31.9648C92.0191 32.7793 91.4976 33.2598 90.607 33.2598H89.0542V30.6582ZM89.0542 34.6191H90.5015L92.0777 37.6836H94.0816L92.3003 34.3438C93.273 33.957 93.8355 33.0195 93.8355 31.9414C93.8355 30.2598 92.6929 29.2285 90.8355 29.2285H87.2847V37.6836H89.0542V34.6191ZM96.9063 36.1719H100.738V37.6836H95.1367V29.2285H100.738V30.7402H96.9063V32.7148H100.522V34.1152H96.9063V36.1719ZM51.4752 53.7373C50.4674 53.7373 49.8141 53.2422 49.7819 52.4541H50.6373C50.6783 52.7969 51.024 53.0166 51.5221 53.0166C51.9821 53.0166 52.3073 52.7939 52.3073 52.4746C52.3073 52.2051 52.0963 52.0498 51.5778 51.9385L51.027 51.8213C50.2565 51.6602 49.8785 51.2588 49.8785 50.6143C49.8785 49.8174 50.5201 49.293 51.4957 49.293C52.4274 49.293 53.0865 49.8145 53.1129 50.5674H52.2809C52.2399 50.2334 51.9293 50.0107 51.5016 50.0107C51.0592 50.0107 50.7662 50.2158 50.7662 50.5381C50.7662 50.7988 50.9684 50.9482 51.4635 51.0537L51.9733 51.1621C52.8229 51.3408 53.1891 51.707 53.1891 52.3633C53.1891 53.2158 52.5358 53.7373 51.4752 53.7373ZM55.2899 53.7373C54.2821 53.7373 53.6288 53.2422 53.5965 52.4541H54.452C54.493 52.7969 54.8387 53.0166 55.3368 53.0166C55.7967 53.0166 56.1219 52.7939 56.1219 52.4746C56.1219 52.2051 55.911 52.0498 55.3924 51.9385L54.8417 51.8213C54.0712 51.6602 53.6932 51.2588 53.6932 50.6143C53.6932 49.8174 54.3348 49.293 55.3104 49.293C56.2421 49.293 56.9012 49.8145 56.9276 50.5674H56.0956C56.0546 50.2334 55.744 50.0107 55.3163 50.0107C54.8739 50.0107 54.5809 50.2158 54.5809 50.5381C54.5809 50.7988 54.7831 50.9482 55.2782 51.0537L55.788 51.1621C56.6376 51.3408 57.0038 51.707 57.0038 52.3633C57.0038 53.2158 56.3505 53.7373 55.2899 53.7373ZM60.3673 52.8584H58.4864V49.4014H57.6017V53.6289H60.3673V52.8584ZM64.1471 50.1572V53.6289H63.2623V50.1572H61.9937V49.4014H65.4156V50.1572H64.1471ZM66.8426 50.1162H67.6102C68.0496 50.1162 68.325 50.3682 68.325 50.7695C68.325 51.1768 68.0643 51.417 67.619 51.417H66.8426V50.1162ZM66.8426 52.0967H67.5662L68.3543 53.6289H69.3563L68.4657 51.959C68.952 51.7656 69.2332 51.2969 69.2332 50.7578C69.2332 49.917 68.6619 49.4014 67.7332 49.4014H65.9578V53.6289H66.8426V52.0967ZM73.5577 53.6289H72.5997L72.2803 52.6211H70.795L70.4698 53.6289H69.5821L71.0499 49.4014H72.0899L73.5577 53.6289ZM71.5684 50.2803H71.5157L70.9854 51.9385H72.0928L71.5684 50.2803ZM74.8851 53.6289V50.9834H74.9378L76.889 53.6289H77.6214V49.4014H76.7747V52.0352H76.722L74.7767 49.4014H74.0384V53.6289H74.8851ZM79.9126 53.7373C78.9048 53.7373 78.2515 53.2422 78.2193 52.4541H79.0748C79.1158 52.7969 79.4615 53.0166 79.9595 53.0166C80.4195 53.0166 80.7447 52.7939 80.7447 52.4746C80.7447 52.2051 80.5337 52.0498 80.0152 51.9385L79.4644 51.8213C78.6939 51.6602 78.316 51.2588 78.316 50.6143C78.316 49.8174 78.9576 49.293 79.9332 49.293C80.8648 49.293 81.524 49.8145 81.5503 50.5674H80.7183C80.6773 50.2334 80.3667 50.0107 79.939 50.0107C79.4966 50.0107 79.2037 50.2158 79.2037 50.5381C79.2037 50.7988 79.4058 50.9482 79.9009 51.0537L80.4107 51.1621C81.2603 51.3408 81.6265 51.707 81.6265 52.3633C81.6265 53.2158 80.9732 53.7373 79.9126 53.7373ZM84.9402 53.6289H85.8982L84.4305 49.4014H83.3904L81.9226 53.6289H82.8103L83.1355 52.6211H84.6209L84.9402 53.6289ZM83.8562 50.2803H83.909L84.4334 51.9385H83.326L83.8562 50.2803ZM89.8184 52.1934C89.7451 53.1074 89.001 53.7373 87.9815 53.7373C86.7569 53.7373 85.9981 52.8906 85.9981 51.5137C85.9981 50.1396 86.7539 49.293 87.9815 49.293C88.9834 49.293 89.751 49.958 89.8155 50.8779H88.9541C88.8692 50.3916 88.4854 50.0723 87.9815 50.0723C87.3164 50.0723 86.9033 50.623 86.9033 51.5137C86.9033 52.4043 87.3164 52.958 87.9844 52.958C88.4912 52.958 88.8721 52.6592 88.9571 52.1934H89.8184ZM92.2151 53.6289V50.1572H93.4837V49.4014H90.0618V50.1572H91.3303V53.6289H92.2151ZM94.9106 49.4014V53.6289H94.0259V49.4014H94.9106ZM97.5447 49.293C96.2996 49.293 95.5085 50.1426 95.5085 51.5137C95.5085 52.8848 96.2878 53.7373 97.5447 53.7373C98.7927 53.7373 99.5779 52.8848 99.5779 51.5137C99.5779 50.1455 98.7898 49.293 97.5447 49.293ZM97.5447 50.0693C98.2302 50.0693 98.6726 50.6289 98.6726 51.5137C98.6726 52.3955 98.2332 52.9609 97.5447 52.9609C96.8474 52.9609 96.4138 52.3955 96.4138 51.5137C96.4138 50.6289 96.8562 50.0693 97.5447 50.0693ZM101.025 50.9834V53.6289H100.179V49.4014H100.917L102.862 52.0352H102.915V49.4014H103.762V53.6289H103.029L101.078 50.9834H101.025Z" fill="#F7728F"/>
</svg>
